<svg xmlns="http://www.w3.org/2000/svg" xmlns:xlink="http://www.w3.org/1999/xlink" version="1.1" id="Layer_1" x="0px" y="0px" viewBox="0 0 100 100" enable-background="new 0 0 100 100" xml:space="preserve" height="100px" width="100px">
<path d="M87.1,11.1v58.2c0,2.9-2.1,6.5-4.6,7.9L54.6,93.1c-2.5,1.4-6.7,1.4-9.2,0L17.5,77.2c-2.5-1.4-4.6-5-4.6-7.9V11.1  c0-2.9,2.4-5.3,5.3-5.3h63.5C84.6,5.8,87.1,8.2,87.1,11.1z M58.9,20.6h-7.1v42.9h7.1V20.6z M69.6,27.7h-7.1v35.7h7.1V27.7z   M48.2,49.1h-7.1v14.3h7.1V49.1z M37.5,38.4h-7.1v25h7.1V38.4z"/>
</svg>